#!OML:ASF E:/inclinewalkrobotboard/Project1/Captureday1/Session1/subject1.ASF
:FULLY-SPECIFIED
:DEGREES
113
root 0 0 0 -1.1541698085142862 -2.6814525529093807 -2.4353086818810024
lowerback 9.472875480667948 0.3490648772192114 0.6801706908669876
upperback 0.02889562436417137 0.6816572215626155 1.7343466000354208
thorax -5.1780817135886 0.3536220373291656 1.3443686230871355
lowerneck -16.502471952635872 -2.9853967740344967 -1.9468993555928318
upperneck 19.855409990727107 -3.8215763607177755 0.6777893720146415
head 9.045936798714997 -1.8556042448215453 0.07439072390845403
rclavicle -6.602159497552944E-16 -4.801994916568419E-16
rhumerus -23.923501879720433 -18.852279000471736 -75.03577342550868
rradius 27.035520967112763
rwrist 6.394155811051405
rhand -15.886519331898214 21.03101438862472
rfingers 7.125020000000035
rthumb 10.287965224317809 -8.456243203731137
lclavicle -6.621279315344521E-16 -3.1293011438045657E-16
lhumerus -29.77512426774176 1.4065164547808005 78.21646846002227
lradius 28.71663484881052
lwrist 3.23703094688096
lhand -23.953455774437185 23.320321188678346
lfingers 7.125020000000042
lthumb 2.4676732431089583 53.01313290261583
rfemur -2.784558147844052 -7.803497461822744 14.321389982224304
rtibia 38.99268479244426
rfoot -8.945292726912324 -8.148937945775506
rtoes 6.291524742706951
lfemur -13.911009873312956 -0.6070509596946021 -20.71215717966604
ltibia 34.20857569886243
lfoot -9.06923200744355 -0.589992429954961
ltoes -2.1657237800893334
114
root 0 0 0 -1.09032611135353 -2.712500419385144 -2.450123877279081
lowerback 9.439936487352696 0.35017154783684457 0.6749486680471364
upperback 0.006689643374372167 0.6826355745776145 1.7358072227130086
thorax -5.183197627947495 0.3543591996658086 1.349563138690577
lowerneck -16.488876955562645 -2.9785486674340196 -1.942577228871118
upperneck 19.865316655158573 -3.814477909117074 0.6844139279690018
head 9.04755203390324 -1.85174122005052 0.07642375533745516
rclavicle -6.604929359255823E-16 -4.803926435392614E-16
rhumerus -23.87339732334145 -18.8582651169244 -74.99836938717368
rradius 27.036790648547584
rwrist 6.420139397136079
rhand -15.863503168592299 21.012282293383823
rfingers 7.125020000000035
rthumb 10.310787797252875 -8.472873848050826
lclavicle -6.609324375186174E-16 -3.1516719742371366E-16
lhumerus -29.743262245958768 1.4124841812384705 78.16586599359587
lradius 28.725761290814557
lwrist 3.2155135360695084
lhand -23.916235249762764 23.320689574333556
lfingers 7.125020000000041
lthumb 2.5033233466760407 53.009635839741264
rfemur -2.617208492104737 -8.00643486018366 14.127259304741983
rtibia 38.99594483855145
rfoot -8.969078059914644 -8.175800139693932
rtoes 6.3287537451821905
lfemur -13.967503078063366 -0.5915335682469411 -20.724616835127456
ltibia 34.22763001950871
lfoot -9.087810917259594 -0.5620086658965171
ltoes -2.143185939327072
115
root 0 0 0 -1.0367319732306406 -2.742149834514242 -2.4633050294870396
lowerback 9.41324445365975 0.3516671259640791 0.6710677880401192
upperback -0.01139359463935996 0.6839747777620062 1.7367163338244151
thorax -5.187704742217571 0.3552767625508903 1.3532496979066027
lowerneck -16.478236289183755 -2.9720237552079665 -1.9384529037317466
upperneck 19.871794195238884 -3.8073460405954833 0.6903127636919617
head 9.048389602238482 -1.8477424435351337 0.07829357023442773
rclavicle -6.596584001163238E-16 -4.785429460686458E-16
rhumerus -23.77271215321285 -18.867579531414087 -74.93751909458749
rradius 27.038040562409883
rwrist 6.469014587561691
rhand -15.819667895390893 20.976473254201508
rfingers 7.125020000000033
rthumb 10.35264873933525 -8.503254659173065
lclavicle -6.592971119922349E-16 -3.171990711940381E-16
lhumerus -29.69490096354152 1.4233381183762237 78.08882882523886
lradius 28.737928749427617
lwrist 3.17881441668216
lhand -23.86148510587744 23.32247368761796
lfingers 7.12502000000004
lthumb 2.5563076420057342 53.00525763523445
rfemur -2.437723244381388 -8.224057692808245 13.913820300390384
rtibia 39.00607499598595
rfoot -8.992420338892464 -8.203964929799623
rtoes 6.3706121723320805
lfemur -14.076076929036361 -0.5596064682662671 -20.748531890472144
ltibia 34.26860505228248
lfoot -9.122609590844352 -0.5098805414390846
ltoes -2.101192752573258
116
root 0 0 0 -0.9929931491401085 -2.7631109765396022 -2.4730189449232354
lowerback 9.39074595529138 0.3523726152120672 0.6674361405984475
upperback -0.026502317017612853 0.6845900494450943 1.7378802770670196
thorax -5.191181860384058 0.3557386390544156 1.3568162013242975
lowerneck -16.468903538047826 -2.9673594074079777 -1.9355695380562792
upperneck 19.878478741827266 -3.8022606228249836 0.6948312339500653
head 9.049569143603685 -1.8450754341631437 0.0797049484353699
rclavicle -6.585622351967559E-16 -4.794673444030871E-16
rhumerus -23.700854593932668 -18.874883360250344 -74.89270722837739
rradius 27.039894715409428
rwrist 6.501649957244503
rhand -15.789347827286027 20.95150044815464
rfingers 7.125020000000033
rthumb 10.381588098604523 -8.524491314539425
lclavicle -6.580192776388227E-16 -3.1899884374530003E-16
lhumerus -29.65439747664363 1.4323768989044465 78.02505244673432
lradius 28.74839183923118
lwrist 3.148680464927276
lhand -23.816766148651322 23.32387035768267
lfingers 7.125020000000039
lthumb 2.5998012320774677 53.00159787982251
rfemur -2.2679700251631374 -8.42926063893465 13.714192039835794
rtibia 39.01326650000319
rfoot -9.01558941618904 -8.230474875626053
rtoes 6.408959457273028
lfemur -14.158350277083464 -0.5358843857883144 -20.767248131647186
ltibia 34.29713851748441
lfoot -9.150807760815285 -0.46987980584762923
ltoes -2.069687320580318
